<?xml version="1.0" encoding="UTF-8"?>
<svg id="_Слой_1_копия6_" data-name="Слой 1 (копия6)" xmlns="http://www.w3.org/2000/svg" viewBox="0 0 340 235">
  <defs>
    <style>
      .cls-1 {
        fill: #4abcd9;
        stroke-width: 0px;
      }
    </style>
  </defs>
  <path class="cls-1" d="m79,49c-35.35,0-64,28.65-64,64s28.65,64,64,64,64-28.65,64-64-28.65-64-64-64Zm0,104c-22.09,0-40-17.91-40-40s17.91-40,40-40,40,17.91,40,40-17.91,40-40,40Z"/>
  <rect class="cls-1" x="109" y="33" width="16" height="8" rx="3.14" ry="3.14"/>
  <path class="cls-1" d="m260,49c-35.35,0-64,28.65-64,64s28.65,64,64,64,64-28.65,64-64-28.65-64-64-64Zm0,104c-22.09,0-40-17.91-40-40s17.91-40,40-40,40,17.91,40,40-17.91,40-40,40Z"/>
  <rect class="cls-1" x="215" y="33" width="16" height="8" rx="3.14" ry="3.14"/>
  <g>
    <rect class="cls-1" x="309" y="167.75" width="16" height="8" rx="3.14" ry="3.14"/>
    <rect class="cls-1" x="309" y="181.75" width="16" height="8" rx="3.14" ry="3.14"/>
  </g>
  <g>
    <rect class="cls-1" x="17" y="168.25" width="16" height="8" rx="3.14" ry="3.14"/>
    <rect class="cls-1" x="17" y="181.25" width="16" height="8" rx="3.14" ry="3.14"/>
  </g>
  <path class="cls-1" d="m180.83,173.21c.03,2.7-2.99,4.46-4.91,2.38-4.41-4.79-8.07-4.98-12.23.05-.9,1.09-2.7,1.08-3.95,0-1.4-1.22-1.3-2.8-.49-4.28.49-.9,1.16-1.76,1.94-2.43,3.68-3.14,5.87-6.8,5.25-11.9-.28-2.26.29-4.83,3.17-4.95,3.2-.12,3.78,2.58,3.53,4.98-.53,5.05,1.41,8.8,5.21,11.9,1.31,1.07,2.44,2.38,2.49,4.26Z"/>
  <rect class="cls-1" x="162" y="142" width="16" height="7" rx="3.14" ry="3.14"/>
</svg>