<?xml version="1.0" encoding="UTF-8"?>
<svg id="_Слой_1_копия_2" data-name="Слой 1 копия 2" xmlns="http://www.w3.org/2000/svg" viewBox="0 0 340 235">
  <defs>
    <style>
      .cls-1, .cls-2 {
        stroke-width: 0px;
      }

      .cls-2 {
        fill: #4abcd9;
      }
    </style>
  </defs>
  <rect class="cls-2" x="109" y="20" width="16" height="8" rx="3.14" ry="3.14"/>
  <rect class="cls-2" x="215" y="20" width="16" height="8" rx="3.14" ry="3.14"/>
  <g>
    <rect class="cls-2" x="309" y="167.75" width="16" height="8" rx="3.14" ry="3.14"/>
    <rect class="cls-2" x="309" y="181.75" width="16" height="8" rx="3.14" ry="3.14"/>
  </g>
  <g>
    <rect class="cls-2" x="17" y="168.25" width="16" height="8" rx="3.14" ry="3.14"/>
    <rect class="cls-2" x="17" y="181.25" width="16" height="8" rx="3.14" ry="3.14"/>
  </g>
  <g>
    <rect class="cls-2" x="162" y="142" width="16" height="7" rx="3.14" ry="3.14"/>
    <path class="cls-2" d="m178.93,172.15c-2.61.17-5.24-.37-7.3-2.59-1.08-1.17-2.09-1.04-3.33-.04-7.81,6.31-17.46,1.33-19.44-7.63-.29-1.34-.31-2.77.41-4.04.62-1.09,1.56-1.77,2.93-1.56,1.3.2,1.78,1.07,1.91,2.26.08.78.22,1.56.33,2.33.52,3.9,3.46,6.25,7.44,5.95,2.86-.21,5.16-3.21,5.16-6.74,0-.98-.06-1.97.02-2.95.14-1.74,1.15-2.67,2.91-2.67,1.61,0,2.63.85,2.82,2.44.17,1.36.12,2.75.2,4.13.18,3.25,2.77,5.8,5.89,5.8,3.47,0,6.15-2.31,6.42-5.63.19-2.35-.14-5.24,3.45-4.88,3.46.35,2.46,3.32,2.39,5.37-.19,5.35-6.15,10.45-12.21,10.45Z"/>
  </g>
  <g>
    <circle class="cls-2" cx="79" cy="113" r="64"/>
    <path class="cls-1" d="m76.96,115.07c.21-1.77,2.54-2.27,3.61-.98,1.2,1.45,0,3.98-1.02,5.2-2.76,3.34-8.16,3.05-10.46-.67-2.43-3.91-.22-9.18,3.07-11.87s8.33-3.18,12.14-1.02c8.78,4.97,6.18,17.42-1.24,22.31-7.99,5.27-19.08,1.9-22.72-6.99-3.58-8.75,1.38-19.02,9.34-23.35s19-2.19,24.85,5.22,5.27,18.29.03,26.07-14.76,11.89-23.9,10.31c-9.26-1.6-16.9-8.45-19.45-17.52s.42-19.37,6.83-26.23,15.92-10.32,25.22-8.87,17.39,7.5,21.56,15.99,3.64,19.01-.62,27.47-11.69,14.67-20.67,17.21c-9.25,2.62-19.3.99-27.29-4.33-7.8-5.19-13-13.63-14.47-22.84s1.32-19.49,6.85-27.22,13.63-12.84,22.66-14.78,19.35-.19,27.47,4.87,13.76,12.74,16.33,21.64c1.31,4.55,1.74,9.24,1.38,13.95-.1,1.29,1.17,2.4,2.4,2.4,1.38,0,2.3-1.1,2.4-2.4.85-11.34-2.87-22.61-10.22-31.26s-17.87-13.81-29.04-14.67-22.34,3.01-30.78,10.34-13.75,18.22-14.54,29.5,3.54,22.37,11.55,30.14,19.73,11.85,31.03,10.39,21.01-7.72,27.1-17.07,8.07-22.09,3.9-32.76-13.06-18.49-24.05-20.87-23.11,1.07-31.13,9.31-11.6,20.37-8.51,31.38c3.07,10.94,12.53,19.44,23.83,21.03,11.39,1.6,22.76-3.72,28.83-13.5s5.86-23.2-2.17-32.05-21.11-10.45-30.95-4.32-14.88,19.43-9.51,30.15c5.29,10.57,19.35,14.35,29.14,7.63,4.89-3.36,8.07-8.58,8.82-14.46s-1.82-11.79-6.74-15.25-11.34-3.58-16.43-.78-8.66,8.74-8.08,14.57c.62,6.26,6.25,11.05,12.58,10.26,2.94-.37,5.62-1.85,7.46-4.18s3.19-6.01,2.08-9.03-3.97-4.89-7.12-4.56c-3.5.37-5.76,3.11-6.16,6.48-.15,1.29,1.21,2.4,2.4,2.4,1.42,0,2.25-1.11,2.4-2.4h0Z"/>
  </g>
  <g>
    <circle class="cls-2" cx="260" cy="113" r="64"/>
    <path class="cls-1" d="m266.81,115.1c-.41-3.47-2.85-6.33-6.5-6.52-3.23-.17-6.22,2.09-6.98,5.23s.66,6.57,2.69,8.91,4.79,3.52,7.72,3.74c6.33.47,11.74-4.81,11.95-11.03.2-5.78-3.45-11.54-8.57-14.12s-11.78-2.19-16.52,1.4-7.05,9.77-6.07,15.85c1.9,11.88,14.49,19.67,25.96,15.95,5.28-1.71,9.84-5.63,12.15-10.7,2.47-5.42,2.5-11.61.37-17.15-4.27-11.1-15.76-17.72-27.51-15.64s-19.82,12.33-20.14,23.78,6.75,22.45,17.14,27.07c10.6,4.71,23.14,2.69,31.66-5.23s11.26-20.4,7.76-31.45c-3.37-10.63-11.96-19.15-22.7-22.27-11.09-3.22-23.3-.26-31.81,7.51s-12.17,19.34-10.49,30.63c1.65,11.09,8.39,21.11,17.96,26.93,9.61,5.84,21.76,7.08,32.33,3.21s18.94-12.32,22.84-22.89c3.96-10.71,2.63-22.91-2.62-32.94-5.12-9.8-14.12-17.34-24.63-20.73-10.76-3.48-22.78-2.32-32.74,3s-17.19,14.33-20.53,24.87c-1.65,5.2-2.25,10.75-1.85,16.19.1,1.29,1.03,2.4,2.4,2.4,1.22,0,2.5-1.1,2.4-2.4-.71-9.51,1.95-19.02,7.78-26.6s14.33-12.59,23.69-14.17,19.13.68,26.98,5.97,13.32,13.38,15.54,22.46c2.3,9.4.81,19.33-4.54,27.45-5.17,7.85-13.63,13.18-22.93,14.54s-18.92-1.48-25.99-7.56c-7.22-6.21-11.65-15.35-11.78-24.91s4.28-18.47,11.85-23.93c7.82-5.65,17.98-7.03,27.02-3.65s15.31,10.9,17.62,19.83c2.41,9.3-.22,19.16-7.48,25.58-6.98,6.18-17.5,7.76-25.95,3.77s-14.29-12.81-14.18-22.31c.12-9.46,7.02-17.65,16.28-19.43,9.12-1.75,18.57,3.61,21.94,12.23,1.68,4.29,2.01,9.18.12,13.45s-5.51,7.45-9.93,8.69c-9.1,2.56-18.77-4.05-19.49-13.55-.34-4.5,1.85-8.78,5.87-10.92s9.05-1.43,12.34,1.61c3.04,2.81,5,7.99,2.4,11.71s-7.94,3.62-10.51.1c-.95-1.31-2.01-3.82-.56-5.14,1.14-1.04,3.19-.39,3.38,1.21.15,1.29.99,2.4,2.4,2.4,1.18,0,2.55-1.1,2.4-2.4h0Z"/>
  </g>
</svg>