<?xml version="1.0" encoding="UTF-8"?>
<svg id="_Слой_1_копия4_" data-name="Слой 1 (копия4)" xmlns="http://www.w3.org/2000/svg" viewBox="0 0 340 235">
  <defs>
    <style>
      .cls-1 {
        fill: #4abcd9;
        stroke-width: 0px;
      }
    </style>
  </defs>
  <path class="cls-1" d="m79,49c-35.35,0-64,28.65-64,64s28.65,64,64,64,64-28.65,64-64-28.65-64-64-64Zm11,93c-22.09,0-40-17.91-40-40s17.91-40,40-40,40,17.91,40,40-17.91,40-40,40Z"/>
  <rect class="cls-1" x="109" y="20" width="16" height="8" rx="3.14" ry="3.14"/>
  <path class="cls-1" d="m260,49c-35.35,0-64,28.65-64,64s28.65,64,64,64,64-28.65,64-64-28.65-64-64-64Zm12,93c-22.09,0-40-17.91-40-40s17.91-40,40-40,40,17.91,40,40-17.91,40-40,40Z"/>
  <rect class="cls-1" x="215" y="20" width="16" height="8" rx="3.14" ry="3.14"/>
  <g>
    <rect class="cls-1" x="309" y="167.75" width="16" height="8" rx="3.14" ry="3.14"/>
    <rect class="cls-1" x="309" y="181.75" width="16" height="8" rx="3.14" ry="3.14"/>
  </g>
  <g>
    <rect class="cls-1" x="17" y="168.25" width="16" height="8" rx="3.14" ry="3.14"/>
    <rect class="cls-1" x="17" y="181.25" width="16" height="8" rx="3.14" ry="3.14"/>
  </g>
  <g>
    <rect class="cls-1" x="162" y="142" width="16" height="7" rx="3.14" ry="3.14"/>
    <path class="cls-1" d="m178.93,172.15c-2.61.17-5.24-.37-7.3-2.59-1.08-1.17-2.09-1.04-3.33-.04-7.81,6.31-17.46,1.33-19.44-7.63-.29-1.34-.31-2.77.41-4.04.62-1.09,1.56-1.77,2.93-1.56,1.3.2,1.78,1.07,1.91,2.26.08.78.22,1.56.33,2.33.52,3.9,3.46,6.25,7.44,5.95,2.86-.21,5.16-3.21,5.16-6.74,0-.98-.06-1.97.02-2.95.14-1.74,1.15-2.67,2.91-2.67,1.61,0,2.63.85,2.82,2.44.17,1.36.12,2.75.2,4.13.18,3.25,2.77,5.8,5.89,5.8,3.47,0,6.15-2.31,6.42-5.63.19-2.35-.14-5.24,3.45-4.88,3.46.35,2.46,3.32,2.39,5.37-.19,5.35-6.15,10.45-12.21,10.45Z"/>
  </g>
</svg>