<?xml version="1.0" encoding="UTF-8"?>
<svg id="_Слой_1_копия_" data-name="Слой 1 (копия)" xmlns="http://www.w3.org/2000/svg" viewBox="0 0 340 235">
  <defs>
    <style>
      .cls-1 {
        stroke: #c0050b;
        stroke-miterlimit: 10;
        stroke-width: 3px;
      }

      .cls-1, .cls-2 {
        fill: #c0050b;
      }

      .cls-2 {
        stroke-width: 0px;
      }
    </style>
  </defs>
  <path class="cls-2" d="m79,49c-35.35,0-64,28.65-64,64s28.65,64,64,64,64-28.65,64-64-28.65-64-64-64Zm0,79c-8.28,0-15-6.72-15-15s6.72-15,15-15,15,6.72,15,15-6.72,15-15,15Z"/>
  <path class="cls-2" d="m260,49c-35.35,0-64,28.65-64,64s28.65,64,64,64,64-28.65,64-64-28.65-64-64-64Zm0,79c-8.28,0-15-6.72-15-15s6.72-15,15-15,15,6.72,15,15-6.72,15-15,15Z"/>
  <g>
    <rect class="cls-2" x="110.25" y="40" width="50" height="8" rx="3.14" ry="3.14" transform="translate(40.12 -61.73) rotate(30)"/>
    <rect class="cls-2" x="179.75" y="35" width="50" height="8" rx="3.14" ry="3.14" transform="translate(7.93 107.6) rotate(-30)"/>
  </g>
  <g>
    <rect class="cls-2" x="309" y="167.75" width="16" height="8" rx="3.14" ry="3.14"/>
    <rect class="cls-2" x="309" y="181.75" width="16" height="8" rx="3.14" ry="3.14"/>
  </g>
  <g>
    <rect class="cls-2" x="17" y="168.25" width="16" height="8" rx="3.14" ry="3.14"/>
    <rect class="cls-2" x="17" y="181.25" width="16" height="8" rx="3.14" ry="3.14"/>
  </g>
  <path class="cls-1" d="m117.76,188c-.11-.31-.21-.75,0-1,.9-1.03,5.96,3.07,12,5,3.95,1.26,6.97,1.16,12,1,5.32-.17,13.71-1.06,23.86-4.88-2.5-2.39-4.1-4.64-5.11-6.27-1.1-1.79-1.52-2.87-1.11-3.74.4-.85,1.33-1.48,2.75-1.61,4.13-.38,8.35-.39,12.47.02,1.45.15,2.39.72,2.8,1.53.33.66.16,1.54-1.3,4.23-2.02,3.72-2.76,3.95-2.64,4.76.12.84,1.18,2.48,12.28,3.95,7.38.98,11.08,1.47,15,1,1.31-.16,13.66-1.7,17-6,.31-.39,1.46-2,3-2,.62,0,1.43.26,1.57.76.17.6-.67,1.31-1,1.6-6.33,5.39-12.57,6.64-12.57,6.64-16.03,3.21-32.67-1.05-36-3-.3-.17-1.42-.88-3-1-1.96-.15-3.49.67-3.9.87-3.32,1.68-27.11,10.04-42.82,1.79-1.21-.64-3.14-1.77-5.28-3.67Z"/>
</svg>