<?xml version="1.0" encoding="UTF-8"?>
<svg id="_Слой_9" data-name="Слой 9" xmlns="http://www.w3.org/2000/svg" viewBox="0 0 340 235">
  <defs>
    <style>
      .cls-1 {
        fill: #4abcd9;
        stroke-width: 0px;
      }
    </style>
  </defs>
  <path class="cls-1" d="m246,124.71c-11.7,0-23.4,0-35.1,0-2.37,0-4.72-.16-7.02-.84-3.33-.99-5.78-3.03-7.08-5.67-1.62-3.3-.84-6.71-.49-8.15,1.52-6.43,10.91-25.14,37.26-38.69,16.17-8.31,29.82-10.05,37.33-10.56,8.43-.56,28.38-1.5,31.88,7.86,1.06,2.83.81,5.56.74,5.95-.63,3.28-3,5.94-5.63,7.18-3.12,1.47-6.28.86-7.22.62-23.09-5.84-45.7.64-62.97,16.86-.7.66-2.48,2.09-2.12,3,.36.92,2.69.79,3.54.75,21.55-1.09,28.28-.03,48.91-.02,3.54,0,7.11-.02,10.56,1.02,4.58,1.38,7.52,5.29,7.51,9.96-.01,4.65-2.99,8.55-7.57,9.92-3.07.92-6.23.95-9.38.96-11.04.03-22.09.01-33.13.01v-.15Z"/>
  <path class="cls-1" d="m92.41,124.71c11.7,0,23.4,0,35.1,0,2.37,0,4.72-.16,7.02-.84,3.33-.99,5.78-3.03,7.08-5.67,1.62-3.3.84-6.71.49-8.15-1.52-6.43-10.91-25.14-37.26-38.69-16.17-8.31-29.82-10.05-37.33-10.56-8.43-.56-28.38-1.5-31.88,7.86-1.06,2.83-.81,5.56-.74,5.95.63,3.28,3,5.94,5.63,7.18,3.12,1.47,6.28.86,7.22.62,23.09-5.84,45.7.64,62.97,16.86.7.66,2.48,2.09,2.12,3-.36.92-2.69.79-3.54.75-21.55-1.09-28.28-.03-48.91-.02-3.54,0-7.11-.02-10.56,1.02-4.58,1.38-7.52,5.29-7.51,9.96.01,4.65,2.99,8.55,7.57,9.92,3.07.92,6.23.95,9.38.96,11.04.03,22.09.01,33.13.01v-.15Z"/>
  <path class="cls-1" d="m154.48,186.49c0-1.05-.13-2.12.02-3.15.57-3.96-.68-6.42-4.6-8.28-5-2.37-7.02-7.22-7.47-12.62-.2-2.32-.06-4.98,2.85-5.17.87-.06,1.52.13,2,.47,1.27.93,1.2,3,1.31,4.29.31,3.64,3.03,7.74,6.03,8.78,4.72,1.65,12.02-3.76,11.77-7.76-.08-1.31-.04-2.63.03-3.94.08-1.58.44-2.88,1.5-3.62,1.06-.74,2.82-.76,3.89.06,1.45,1.11,1.4,2.85,1.5,7.25.11,4.81,3.33,8.21,8.02,8.47,5.37.33,9.96-3.82,9.73-9-.09-1.99,0-3.55,1.21-4.47,1.09-.82,2.97-.73,4.05.2,1.13.98,1.06,2.6.9,4.54-.52,6.07-3.25,10.87-8.89,13.41-2.51,1.13-3.23,2.59-3.21,5.11.05,4.59.2,9.22-.33,13.76-.93,8.01-6.92,12.98-14.41,13.45-8.07.51-14.98-6.26-15.53-13.14-.23-2.87-.36-5.76-.53-8.63.05,0,.1,0,.16,0Zm15.52,1.29c-4.5-.08-8.79,3.4-8.92,7.22-.13,3.88,4.38,8.01,8.74,8.01,4.26,0,8.48-3.74,8.65-7.64.16-3.92-3.84-7.51-8.47-7.59Z"/>
  <rect class="cls-1" x="109" y="19.98" width="16" height="8" rx="3.14" ry="3.14"/>
  <rect class="cls-1" x="215" y="19.98" width="16" height="8" rx="3.14" ry="3.14"/>
  <g>
    <rect class="cls-1" x="309" y="167.73" width="16" height="8" rx="3.14" ry="3.14"/>
    <rect class="cls-1" x="309" y="181.73" width="16" height="8" rx="3.14" ry="3.14"/>
  </g>
  <g>
    <rect class="cls-1" x="17" y="168.23" width="16" height="8" rx="3.14" ry="3.14"/>
    <rect class="cls-1" x="17" y="181.23" width="16" height="8" rx="3.14" ry="3.14"/>
  </g>
  <rect class="cls-1" x="162" y="141.98" width="16" height="7" rx="3.14" ry="3.14"/>
</svg>