<?xml version="1.0" encoding="UTF-8"?>
<svg id="_Слой_1_копия6_" data-name="Слой 1 (копия6)" xmlns="http://www.w3.org/2000/svg" viewBox="0 0 340 235">
  <defs>
    <style>
      .cls-1 {
        fill: #c0050b;
        stroke-width: 0px;
      }
    </style>
  </defs>
  <rect class="cls-1" x="101" y="46" width="32" height="8" rx="3.14" ry="3.14" transform="translate(24.16 -37) rotate(20)"/>
  <rect class="cls-1" x="207" y="46" width="32" height="8" rx="3.14" ry="3.14" transform="translate(-3.65 79.29) rotate(-20)"/>
  <g>
    <rect class="cls-1" x="309" y="167.75" width="16" height="8" rx="3.14" ry="3.14"/>
    <rect class="cls-1" x="309" y="181.75" width="16" height="8" rx="3.14" ry="3.14"/>
  </g>
  <g>
    <rect class="cls-1" x="17" y="168.25" width="16" height="8" rx="3.14" ry="3.14"/>
    <rect class="cls-1" x="17" y="181.25" width="16" height="8" rx="3.14" ry="3.14"/>
  </g>
  <g>
    <rect class="cls-1" x="162" y="142" width="16" height="7" rx="3.14" ry="3.14"/>
    <path class="cls-1" d="m178.93,172.15c-2.61.17-5.24-.37-7.3-2.59-1.08-1.17-2.09-1.04-3.33-.04-7.81,6.31-17.46,1.33-19.44-7.63-.29-1.34-.31-2.77.41-4.04.62-1.09,1.56-1.77,2.93-1.56,1.3.2,1.78,1.07,1.91,2.26.08.78.22,1.56.33,2.33.52,3.9,3.46,6.25,7.44,5.95,2.86-.21,5.16-3.21,5.16-6.74,0-.98-.06-1.97.02-2.95.14-1.74,1.15-2.67,2.91-2.67,1.61,0,2.63.85,2.82,2.44.17,1.36.12,2.75.2,4.13.18,3.25,2.77,5.8,5.89,5.8,3.47,0,6.15-2.31,6.42-5.63.19-2.35-.14-5.24,3.45-4.88,3.46.35,2.46,3.32,2.39,5.37-.19,5.35-6.15,10.45-12.21,10.45Z"/>
  </g>
  <path class="cls-1" d="m143,113c-.56-9.05-2.75-15.23-7-23-2.15-3.77-5.62-6.61-9.68-8.14-22.7-8.56-45.4-17.13-68.1-25.69-3.88-1.49-8.09-.81-11.26,1.44-55.85,32.72-33.65,118.75,32.04,119.39,37.64,0,65.24-34.67,64-64Zm-24.81-8.05c5.25,24.39-14.17,48.35-39.19,48.05-38.75-.22-54.42-49.58-23.68-72.23,20.96,8.06,41.91,16.12,62.87,24.18Z"/>
  <path class="cls-1" d="m260.04,177c65.69-.64,87.89-86.67,32.04-119.39-3.17-2.25-7.38-2.93-11.26-1.44-22.7,8.56-45.4,17.13-68.1,25.69-4.06,1.53-7.52,4.38-9.68,8.14-4.25,7.77-6.44,13.95-7,23-1.24,29.33,26.36,64,64,64Zm23.68-96.23c30.74,22.66,15.07,72.02-23.68,72.23-25.02.3-44.44-23.66-39.19-48.05,20.96-8.06,41.91-16.12,62.87-24.18Z"/>
</svg>